<?xml version="1.0" encoding="UTF-8" standalone="no"?>
<!DOCTYPE svg PUBLIC "-//W3C//DTD SVG 1.1//EN" "http://www.w3.org/Graphics/SVG/1.1/DTD/svg11.dtd">
<svg width="100%" height="100%" viewBox="0 0 2224 1668" version="1.1" xmlns="http://www.w3.org/2000/svg" xmlns:xlink="http://www.w3.org/1999/xlink" xml:space="preserve" xmlns:serif="http://www.serif.com/" style="fill-rule:evenodd;clip-rule:evenodd;stroke-linecap:round;stroke-linejoin:round;stroke-miterlimit:1.5;">
    <g transform="matrix(1.53876,0,0,1.53876,-868.836,-630.363)">
        <g transform="matrix(1.13304,0,0,1.04037,63.2782,-15.4475)">
            <path d="M1690,836.898C1690,783.086 1670.37,731.479 1635.43,693.428C1600.5,655.377 1553.11,634.001 1503.7,634.001L656.886,634.001C607.475,634.001 560.089,655.377 525.151,693.428C490.212,731.479 470.584,783.086 470.584,836.898L470.584,1091.1C470.584,1144.91 490.212,1196.52 525.151,1234.57C560.089,1272.62 607.475,1294 656.886,1294L1503.7,1294C1553.11,1294 1600.5,1272.62 1635.43,1234.57C1670.37,1196.52 1690,1144.91 1690,1091.1L1690,836.898Z" style="fill:#FAFBFC;stroke:#333;stroke-width:69.3px;"/>
        </g>
        <g transform="matrix(1.26947,0,0,1.26947,-196.859,-233.939)">
            <g transform="matrix(1,0,0,0.830253,9.27881,134.609)">
                <path d="M1276,591.184C1276,579.083 1272.01,567.477 1264.9,558.92C1257.8,550.364 1248.16,545.556 1238.12,545.556L1195.25,545.556C1185.21,545.556 1175.57,550.364 1168.47,558.92C1161.36,567.477 1157.37,579.083 1157.37,591.184L1157.37,747.372C1157.37,759.474 1161.36,771.079 1168.47,779.636C1175.57,788.193 1185.21,793 1195.25,793L1238.12,793C1248.16,793 1257.8,788.193 1264.9,779.636C1272.01,771.079 1276,759.474 1276,747.372L1276,591.184Z" style="fill:#FAFBFC;stroke:#333;stroke-width:38.28px;"/>
            </g>
            <g transform="matrix(1,0,0,0.830253,166.818,134.609)">
                <path d="M1276,591.184C1276,579.083 1272.01,567.477 1264.9,558.92C1257.8,550.364 1248.16,545.556 1238.12,545.556L1195.25,545.556C1185.21,545.556 1175.57,550.364 1168.47,558.92C1161.36,567.477 1157.37,579.083 1157.37,591.184L1157.37,747.372C1157.37,759.474 1161.36,771.079 1168.47,779.636C1175.57,788.193 1185.21,793 1195.25,793L1238.12,793C1248.16,793 1257.8,788.193 1264.9,779.636C1272.01,771.079 1276,759.474 1276,747.372L1276,591.184Z" style="fill:#FAFBFC;stroke:#333;stroke-width:38.28px;"/>
            </g>
            <g transform="matrix(1.31294,0,0,1.31294,235.992,-351.633)">
                <circle cx="813.183" cy="983.564" r="140.39" style="fill:#FAFBFC;stroke:#333;stroke-width:25.6px;"/>
            </g>
            <g transform="matrix(1.31294,0,0,1.31294,319.138,-315.119)">
                <circle cx="749.414" cy="956.947" r="91.839" style="fill:#FAFBFC;stroke:#333;stroke-width:25.6px;"/>
            </g>
        </g>
    </g>
</svg>
