<?xml version="1.0" encoding="UTF-8" standalone="no"?>
<!DOCTYPE svg PUBLIC "-//W3C//DTD SVG 1.1//EN" "http://www.w3.org/Graphics/SVG/1.1/DTD/svg11.dtd">
<svg width="100%" height="100%" viewBox="0 0 4167 4167" version="1.1" xmlns="http://www.w3.org/2000/svg" xmlns:xlink="http://www.w3.org/1999/xlink" xml:space="preserve" xmlns:serif="http://www.serif.com/" style="fill-rule:evenodd;clip-rule:evenodd;stroke-linecap:round;stroke-linejoin:round;stroke-miterlimit:1.5;">
    <g>
        <path d="M1416.39,3439.61L957.157,3439.61C488.488,3439.61 107.989,3059.11 107.989,2590.45L107.989,892.109C107.989,423.441 488.488,42.942 957.157,42.942L3207.05,42.942C3675.72,42.942 4056.22,423.441 4056.22,892.109L4056.22,2590.45C4056.22,3059.11 3675.72,3439.61 3207.05,3439.61L2676.62,3439.61L2040.51,4133.68L1416.39,3439.61Z" style="stroke:white;stroke-width:64.9px;"/>
    </g>
    <g transform="matrix(2.63877,0,0,2.63877,-640.083,-975.071)">
        <g transform="matrix(2.44558,0,0,2.44558,-1815.18,-1991.41)">
            <g transform="matrix(1,0,0,1,0.124567,-0.264573)">
                <path d="M1008.69,1226.16L1008.67,1226.16C1032.3,1222.51 1050.41,1202.07 1050.41,1177.42C1050.41,1163.62 1044.73,1151.14 1035.53,1142.23C1060.25,1160.14 1076.33,1189.26 1076.33,1222.1C1076.33,1226.03 1076.09,1229.9 1075.62,1233.7L1075.57,1234.07L1075.19,1237.11C1074.9,1238.73 1074.61,1240.35 1074.32,1241.97L1073.41,1245.89L1073.12,1247.06L1072.61,1248.87C1060.82,1290.11 1022.81,1320.32 977.798,1320.32C977.068,1320.32 976.339,1320.31 975.616,1320.29L887.302,1320.44C890.216,1312.81 893.745,1305.42 897.874,1298.38C902.099,1291.17 906.94,1284.34 912.309,1277.94L912.309,1277.94C936.037,1249.72 970.125,1230.5 1008.69,1226.16Z" style="fill:url(#_Linear1);"/>
            </g>
            <g transform="matrix(1.15815,0,0,1.02402,-163.697,-27.6895)">
                <path d="M931.33,1316.04C931.775,1313.62 932.303,1311.23 932.91,1308.88C942.398,1270.4 973.176,1240.29 1012.01,1231.75L1011.93,1231.74L1011.93,1231.74C1015.68,1230.92 1019.34,1229.69 1022.81,1228.06C1030.53,1224.46 1037.31,1218.96 1042.45,1212.17C1046.29,1207.11 1049.19,1201.35 1050.97,1195.25C1052.51,1189.96 1053.19,1184.43 1053.02,1178.93C1052.85,1173.8 1051.94,1168.7 1050.29,1163.84C1048.22,1157.73 1045.01,1152.05 1040.88,1147.09L1040.86,1147.06C1059.34,1165.94 1070.73,1191.78 1070.73,1220.25C1070.73,1221.77 1070.7,1223.27 1070.63,1224.77C1064.05,1276.22 1020.04,1316.04 966.81,1316.04L931.33,1316.04Z" style="fill:url(#_Linear2);"/>
            </g>
        </g>
        <g transform="matrix(1,0,0,1,-395.121,681.949)">
            <text x="748.485px" y="554.871px" style="font-family:'Futura-Medium', 'Futura', sans-serif;font-weight:500;font-size:576px;fill:white;">A<tspan x="1155.45px 1640.61px " y="554.871px 554.871px ">GG</tspan></text>
        </g>
    </g>
    <defs>
        <linearGradient id="_Linear1" x1="0" y1="0" x2="1" y2="0" gradientUnits="userSpaceOnUse" gradientTransform="matrix(-189.022,128.399,-128.399,-189.022,1076.32,1192.04)"><stop offset="0" style="stop-color:rgb(255,0,0);stop-opacity:1"/><stop offset="1" style="stop-color:rgb(153,0,0);stop-opacity:1"/></linearGradient>
        <linearGradient id="_Linear2" x1="0" y1="0" x2="1" y2="0" gradientUnits="userSpaceOnUse" gradientTransform="matrix(106.531,-94.485,83.5422,120.486,950.901,1306.22)"><stop offset="0" style="stop-color:rgb(255,123,0);stop-opacity:0.64"/><stop offset="1" style="stop-color:rgb(255,205,0);stop-opacity:0.64"/></linearGradient>
    </defs>
</svg>
