<?xml version="1.0" encoding="UTF-8" standalone="no"?>
<!DOCTYPE svg PUBLIC "-//W3C//DTD SVG 1.1//EN" "http://www.w3.org/Graphics/SVG/1.1/DTD/svg11.dtd">
<svg width="100%" height="100%" viewBox="0 0 2080 1668" version="1.1" xmlns="http://www.w3.org/2000/svg" xmlns:xlink="http://www.w3.org/1999/xlink" xml:space="preserve" xmlns:serif="http://www.serif.com/" style="fill:#333;fill-rule:evenodd;clip-rule:evenodd;stroke-linejoin:round;stroke-miterlimit:2;">
    <g transform="matrix(7.01799,0,0,7.01799,-449.967,-4813.09)">
        <path d="M285.438,685.822C278.76,685.822 272.511,687.214 266.905,689.25L253.372,694.106L285.438,726.172L285.438,740.67L270.94,740.67L238.874,708.604L234.018,722.137C231.982,727.743 230.59,733.992 230.59,740.67C230.59,760.488 242.195,776.664 258.014,786.269L258.014,896.073C258.014,911.106 270.404,923.497 285.438,923.497C300.471,923.497 312.862,911.106 312.862,896.073L312.862,786.269C328.681,776.664 340.286,760.488 340.286,740.67C340.286,710.496 315.611,685.822 285.438,685.822ZM290.151,705.033C308.113,707.461 322.003,722.066 322.003,740.67C322.003,755.739 312.969,768.487 300.042,774.129L294.579,776.521L294.579,896.073C294.579,901.143 290.508,905.214 285.438,905.214C280.367,905.214 276.296,901.143 276.296,896.073L276.296,776.521L270.833,774.129C259.656,769.272 252.55,758.524 250.515,746.097L263.37,758.952L303.72,758.952L303.72,718.602L290.151,705.033ZM198.559,731.528C183.883,731.528 170.849,739.848 163.565,751.954L150.96,772.95L103.253,784.841C92.184,787.626 84.328,797.696 84.328,809.087L84.328,842.439C84.328,851.759 92.077,859.507 101.396,859.507L112.216,859.507C114.466,874.898 127.749,886.931 143.747,886.931C159.637,886.931 172.849,875.076 175.241,859.829L248.908,859.507L248.837,841.225L172.706,841.582C167.6,830.655 156.53,822.942 143.747,822.942C131.106,822.942 120.179,830.476 115.001,841.225L102.611,841.225L102.611,809.087C102.611,805.98 104.646,803.338 107.681,802.588L162.744,788.84L179.205,761.381C183.383,754.417 190.953,749.811 198.559,749.811L221.448,749.811L221.448,731.528L198.559,731.528ZM143.747,841.225C151.424,841.225 157.459,847.259 157.459,854.937C157.459,862.614 151.424,868.649 143.747,868.649C136.069,868.649 130.035,862.614 130.035,854.937C130.035,847.259 136.069,841.225 143.747,841.225Z" style="fill:#333"/>
    </g>
</svg>
