<?xml version="1.0" encoding="UTF-8" standalone="no"?>
<!DOCTYPE svg PUBLIC "-//W3C//DTD SVG 1.1//EN" "http://www.w3.org/Graphics/SVG/1.1/DTD/svg11.dtd">
<svg width="100%" height="100%" viewBox="0 0 2000 2000" version="1.1" xmlns="http://www.w3.org/2000/svg" xmlns:xlink="http://www.w3.org/1999/xlink" xml:space="preserve" xmlns:serif="http://www.serif.com/" style="fill-rule:evenodd;clip-rule:evenodd;stroke-linecap:round;stroke-linejoin:round;stroke-miterlimit:1.5;">
    <g transform="matrix(1.37098,0,0,1.37214,-476.969,-71.2541)">
        <g transform="matrix(1.31291,0,0,1.31291,253.562,63.1739)">
            <circle cx="626.484" cy="547.041" r="540.237" style="fill:none;stroke:white;stroke-width:22.21px;"/>
        </g>
        <g transform="matrix(0.619131,0,0,0.614592,688.201,445.18)">
            <circle cx="626.484" cy="547.041" r="540.237" style="fill:none;stroke:white;stroke-width:47.22px;"/>
        </g>
        <g transform="matrix(0.111378,0,0,0.110561,731.993,720.906)">
            <circle cx="626.484" cy="547.041" r="540.237" style="fill:none;stroke:white;stroke-width:262.48px;"/>
        </g>
        <g transform="matrix(0.111378,0,0,0.110561,1280.61,720.906)">
            <circle cx="626.484" cy="547.041" r="540.237" style="fill:none;stroke:white;stroke-width:262.48px;"/>
        </g>
        <g transform="matrix(0.83238,0,0,0.912856,166.182,-873.311)">
            <path d="M1350.38,1220.36C1350.38,1209.7 1345.74,1199.49 1337.47,1191.95C1329.2,1184.42 1317.99,1180.19 1306.3,1180.19C1209.07,1180.19 977.182,1180.19 879.955,1180.19C868.262,1180.19 857.048,1184.42 848.78,1191.95C840.511,1199.49 835.866,1209.7 835.866,1220.36C835.866,1252.92 835.866,1298.6 835.866,1331.17C835.866,1341.82 840.511,1352.04 848.78,1359.57C857.048,1367.1 868.262,1371.33 879.955,1371.33C977.182,1371.33 1209.07,1371.33 1306.3,1371.33C1317.99,1371.33 1329.2,1367.1 1337.47,1359.57C1345.74,1352.04 1350.38,1341.82 1350.38,1331.17C1350.38,1298.6 1350.38,1252.92 1350.38,1220.36Z" style="fill:none;stroke:white;stroke-width:33.34px;"/>
        </g>
    </g>
</svg>
