<?xml version="1.0"?>
<svg xmlns="http://www.w3.org/2000/svg" width="50" height="50" viewBox="0 0 50 50">
    <path fill="#ffffff" style="fill: var(--color1, #ffffff)" d="M 4.96875 4 C 4.725125 4.009125 4.46625 4.09625 4.28125 4.28125 L 3.28125 5.28125 C 2.91725 5.64525 2.89175 6.227 3.21875 6.625 L 17 23.34375 L 17 26 L 27 26 L 27 23 C 27 22.708 26.87825 22.44 26.65625 22.25 L 5.65625 4.25 C 5.45875 4.0805 5.212375 3.990875 4.96875 4 z M 4 10.71875 L 4 19 C 4 19.552 4.448 20 5 20 C 5.551 20 6 20.449 6 21 C 6 21.551 5.551 22 5 22 C 4.449 22 4 21.551 4 21 L 2 21 C 2 22.654 3.346 24 5 24 C 6.654 24 8 22.654 8 21 C 8 19.696 7.164 18.56925 6 18.15625 L 6 13.15625 L 4 10.71875 z M 32 13 C 30.346 13 29 14.346 29 16 L 29 38 L 33.09375 38 C 33.57275 40.833 36.033 43 39 43 C 41.967 43 44.42825 40.833 44.90625 38 L 47 38 C 48.654 38 50 36.654 50 35 L 50 25.375 C 50 23.364 48.552 21.3095 48.375 21.0625 L 44.21875 15.5 C 43.26575 14.352 41.772 13 40 13 L 32 13 z M 38 19 L 44.34375 19 L 46.78125 22.25 C 47.08625 22.677 47.81475 23.904 47.96875 25 L 38 25 C 37.552 25 37 24.449 37 24 L 37 20 C 37 19.446 37.547 19 38 19 z M 0 28 L 0 35 C 0 36.651 1.349 38 3 38 L 7.09375 38 C 7.57275 40.833 10.032 43 13 43 C 15.968 43 18.42725 40.833 18.90625 38 L 27 38 L 27 28 L 0 28 z M 13 33 C 15.206 33 17 34.794 17 37 C 17 39.206 15.206 41 13 41 C 10.794 41 9 39.206 9 37 C 9 34.794 10.794 33 13 33 z M 39 33 C 41.206 33 43 34.794 43 37 C 43 39.206 41.206 41 39 41 C 36.794 41 35 39.206 35 37 C 35 34.794 36.794 33 39 33 z"/>
</svg>
