<?xml version="1.0" encoding="UTF-8" standalone="no"?>
<!DOCTYPE svg PUBLIC "-//W3C//DTD SVG 1.1//EN" "http://www.w3.org/Graphics/SVG/1.1/DTD/svg11.dtd">
<svg width="100%" height="100%" viewBox="0 0 2080 1668" version="1.1" xmlns="http://www.w3.org/2000/svg" xmlns:xlink="http://www.w3.org/1999/xlink" xml:space="preserve" xmlns:serif="http://www.serif.com/" style="fill-rule:evenodd;clip-rule:evenodd;stroke-linejoin:round;stroke-miterlimit:2;">
    <g transform="matrix(10.3474,0,0,10.3723,-3217.89,-975.462)">
        <path d="M331.086,94.045C327.385,94.045 324.385,97.045 324.385,100.745L324.385,127.547C324.385,131.248 327.385,134.247 331.086,134.248L344.487,134.248C348.259,134.248 351.187,137.176 351.187,140.948C351.187,144.72 348.259,147.649 344.487,147.649L324.385,147.649C324.385,155.046 330.389,161.05 337.786,161.05L344.487,161.05C355.51,161.05 364.588,151.971 364.588,140.948C364.588,129.926 355.51,120.847 344.487,120.847L337.786,120.847L337.786,107.446L367.258,107.446L402.907,174.451L310.984,174.451L310.984,207.954C310.984,218.976 320.063,228.055 331.086,228.055L337.786,228.055C337.786,242.778 349.865,254.857 364.588,254.857C379.311,254.857 391.39,242.778 391.39,228.055L431.594,228.055C431.594,242.778 443.673,254.857 458.396,254.857C473.119,254.857 485.198,242.778 485.198,228.055L491.898,228.055C502.921,228.055 512,218.976 512,207.954L512,167.122C512,162.421 510.353,157.867 507.315,154.245L474.257,114.67C470.439,110.088 464.765,107.446 458.815,107.446L424.893,107.446C421.193,107.446 418.193,110.446 418.193,114.146L418.193,174.451L418.088,174.451L377.204,97.604C376.042,95.415 373.767,94.046 371.289,94.045L331.086,94.045ZM431.594,120.847L458.815,120.847C460.824,120.847 462.697,121.726 463.971,123.255L497.028,162.83C497.037,162.839 497.046,162.847 497.055,162.856C498.063,164.058 498.599,165.552 498.599,167.122L498.599,207.954C498.599,211.726 495.67,214.654 491.898,214.654L481.429,214.654C476.762,206.7 468.221,201.253 458.396,201.253C448.571,201.253 440.029,206.7 435.363,214.654L431.594,214.654C432.051,160.9 431.844,145.165 431.594,120.847ZM324.385,187.852L418.193,187.852L418.193,214.654L387.621,214.654C382.955,206.7 374.413,201.253 364.588,201.253C354.763,201.253 346.222,206.7 341.555,214.654L331.086,214.654C327.314,214.654 324.385,211.726 324.385,207.954L324.385,187.852ZM364.588,214.654C372.069,214.654 377.989,220.575 377.989,228.055C377.989,235.536 372.069,241.456 364.588,241.456C357.108,241.456 351.187,235.536 351.187,228.055C351.187,220.575 357.108,214.654 364.588,214.654ZM458.396,214.654C465.876,214.654 471.797,220.575 471.797,228.055C471.797,235.536 465.876,241.456 458.396,241.456C450.915,241.456 444.995,235.536 444.995,228.055C444.995,220.575 450.915,214.654 458.396,214.654Z" style="fill:#333"/>
    </g>
</svg>
